<svg width="240" height="184" viewBox="0 0 240 184" fill="none" xmlns="http://www.w3.org/2000/svg">
<path opacity="0.1" d="M140.068 26.2898C124.794 25.7612 110.247 20.8289 96.3567 15.434C82.466 10.0392 68.7075 4.06381 53.7903 1.20356C44.2018 -0.634842 33.2351 -0.894437 25.511 4.24789C18.0748 9.20378 15.6724 17.7326 14.3815 25.6573C13.4092 31.6186 12.8381 37.8937 15.5001 43.4749C17.3503 47.35 20.633 50.6067 22.9009 54.3165C30.7997 67.2325 25.216 83.1551 16.6589 95.7666C12.647 101.681 7.98606 107.33 4.88745 113.62C1.78884 119.909 0.365793 127.13 3.07737 133.566C5.76299 139.938 12.1655 144.714 19.1014 148.077C33.1879 154.909 49.7807 156.863 65.9723 157.972C101.803 160.422 137.823 159.363 173.749 158.298C187.045 157.904 200.397 157.508 213.476 155.45C220.74 154.31 228.238 152.497 233.512 148.134C240.205 142.581 241.864 133.179 237.378 126.215C229.854 114.535 209.058 111.635 203.793 99.1012C200.9 92.2008 203.871 84.5168 208.079 78.1189C217.103 64.3911 232.228 52.3483 233.026 36.6594C233.571 25.8839 226.3 15.0918 215.057 9.992C203.274 4.64908 186.931 5.32166 178.242 14.1667C169.286 23.2525 153.555 26.7594 140.068 26.2898Z" fill="#FF4D4D"/>
<path d="M23.2431 161.437C23.2431 161.437 28.199 160.644 31.1726 164.146C31.1726 164.146 28.992 165.864 24.3004 163.485L23.2431 161.437Z" fill="#FF4D4D"/>
<path d="M22.7121 161.361C22.7121 161.361 19.5522 165.26 21.1026 169.583C21.1026 169.583 23.6797 168.552 23.9605 163.299L22.7121 161.361Z" fill="#FF4D4D"/>
<path d="M19.8731 154.961C19.8731 154.961 21.8555 151.327 29.7849 156.415C29.7849 156.415 28.7277 158.86 25.2255 158.662C21.7233 158.463 20.7982 156.877 19.8731 154.961Z" fill="#FF4D4D"/>
<path d="M19.361 154.699C19.361 154.699 15.2476 154.227 14.8488 163.643C14.8488 163.643 17.4447 164.186 19.3091 161.208C21.1734 158.23 20.397 156.559 19.361 154.699Z" fill="#FF4D4D"/>
<path d="M16.9751 147.19C16.9751 147.19 19.2878 140.778 27.6798 145.34C27.6798 145.34 25.7635 151.221 17.8341 149.371L16.9751 147.19Z" fill="#FF4D4D"/>
<path d="M14.3792 137.606C14.3792 137.606 18.7427 131.13 26.4739 137.134C26.4739 137.134 23.7647 143.216 15.04 139.909L14.3792 137.606Z" fill="#FF4D4D"/>
<path d="M13.4612 128.487C13.4612 128.487 18.5516 122.54 26.2167 128.487C26.2167 128.487 21.3929 133.708 13.473 130.007L13.4612 128.487Z" fill="#FF4D4D"/>
<path d="M12.6682 119.642C12.6682 119.642 17.8247 113.431 25.1594 119.312C25.1594 119.312 19.3445 124.796 12.6682 121.096V119.642Z" fill="#FF4D4D"/>
<path d="M13.1308 111.769C13.1308 111.769 18.5586 103.772 25.4237 109.19C25.4237 109.19 19.6088 116.065 13.1308 113.289V111.769Z" fill="#FF4D4D"/>
<path d="M14.3792 102.582C14.3792 102.582 20.1304 94.6528 26.8043 100.732C26.8043 100.732 19.9982 107.604 14.3792 104.036V102.582Z" fill="#FF4D4D"/>
<path d="M16.3049 94.3719C16.3049 94.3719 23.111 86.9216 29.0486 89.888C29.0486 89.888 21.9546 97.8009 16.0075 96.3472L16.3049 94.3719Z" fill="#FF4D4D"/>
<path d="M18.6837 86.603C18.6837 86.603 26.5471 77.4818 31.1065 80.5238C31.1065 80.5238 25.3199 87.6036 18.1268 88.3116L18.6837 86.603Z" fill="#FF4D4D"/>
<path d="M22.1174 77.562C22.1174 77.562 28.992 70.1093 34.0139 71.9713C34.0139 71.9713 28.1329 79.7049 21.1947 79.9031L22.1174 77.562Z" fill="#FF4D4D"/>
<path d="M25.2349 69.1181C25.2349 69.1181 32.834 61.9817 36.1379 63.2371C36.1379 63.2371 30.6534 71.1666 24.9045 70.704L25.2349 69.1181Z" fill="#FF4D4D"/>
<path d="M28.2651 61.3209C28.2651 61.3209 34.8069 52.7968 38.3751 53.4575C38.3751 53.4575 34.4104 61.0566 28.2651 62.1893V61.3209Z" fill="#FF4D4D"/>
<path d="M31.5643 50.8096C31.5643 50.8096 37.3462 44.2726 40.4684 44.2891C40.4684 44.2891 35.9043 53.0209 31.326 52.9407L31.5643 50.8096Z" fill="#FF4D4D"/>
<path d="M33.5183 43.8101L39.102 30.2002C39.102 30.2002 39.3828 42.505 32.808 46.3399L33.5183 43.8101Z" fill="#FF4D4D"/>
<path d="M35.7862 28.7961C35.7862 28.7961 36.7113 17.4306 36.1166 16.5055C36.1166 16.5055 40.1097 25.9453 35.7461 33.818L35.7862 28.7961Z" fill="#FF4D4D"/>
<path d="M16.7391 147.037C16.7391 147.037 10.9478 143.447 7.19785 152.228C7.19785 152.228 12.352 155.648 17.4188 149.276L16.7391 147.037Z" fill="#FF4D4D"/>
<path d="M14.2022 137.243C14.2022 137.243 7.09873 134 3.65085 143.171C3.65085 143.171 9.14008 146.935 14.8488 139.558L14.2022 137.243Z" fill="#FF4D4D"/>
<path d="M13.1308 129.032C13.1308 129.032 8.04272 123.085 0.387054 129.032C0.387054 129.032 5.21079 134.253 13.1308 130.552V129.032Z" fill="#FF4D4D"/>
<path d="M12.4912 119.642C12.4912 119.642 7.33708 113.431 0 119.312C0 119.312 5.81727 124.796 12.4912 121.096V119.642Z" fill="#FF4D4D"/>
<path d="M13.1307 111.994C13.1307 111.994 9.5153 103.026 1.65668 106.889C1.65668 106.889 5.90458 114.833 12.8121 113.48L13.1307 111.994Z" fill="#FF4D4D"/>
<path d="M14.8512 102.537C14.8512 102.537 11.2593 93.4256 3.28741 97.6522C3.28741 97.6522 8.16779 106.002 14.4972 103.946L14.8512 102.537Z" fill="#FF4D4D"/>
<path d="M17.0695 94.4191C17.0695 94.4191 15.6535 84.4295 9.0575 83.5351C9.0575 83.5351 10.4569 94.0698 16.1893 96.2197L17.0695 94.4191Z" fill="#FF4D4D"/>
<path d="M18.8631 86.603C18.8631 86.603 18.3108 74.5673 12.8476 74.1495C12.8476 74.1495 13.0316 83.2849 18.2471 88.3092L18.8631 86.603Z" fill="#FF4D4D"/>
<path d="M22.6838 77.2198C22.6838 77.2198 21.0531 67.2113 15.84 65.9865C15.84 65.9865 16.4866 75.6811 22.1693 79.6742L22.6838 77.2198Z" fill="#FF4D4D"/>
<path d="M25.8438 69.1913C25.8438 69.1913 25.7872 58.765 22.6036 57.2334C22.6036 57.2334 20.626 66.6732 24.9211 70.5223L25.8438 69.1913Z" fill="#FF4D4D"/>
<path d="M28.5082 61.2052C28.5082 61.2052 28.0669 50.4675 24.7629 48.9547C24.7629 48.9547 23.6325 57.4505 28.0126 61.9085L28.5082 61.2052Z" fill="#FF4D4D"/>
<path d="M32.0245 51.6758C32.0245 51.6758 32.0033 42.944 29.6504 40.8979C29.6504 40.8979 27.307 50.4628 30.795 53.4316L32.0245 51.6758Z" fill="#FF4D4D"/>
<path d="M33.2399 43.3782L30.9507 28.8456C30.9507 28.8456 27.8309 40.7539 33.3508 46.0119L33.2399 43.3782Z" fill="#FF4D4D"/>
<path d="M33.6883 28.9353C33.6883 28.9353 27.8073 19.1651 27.9276 18.0796C27.9276 18.0796 28.553 28.3194 35.9515 33.4192L33.6883 28.9353Z" fill="#FF4D4D"/>
<path d="M34.3773 26.0491C34.3773 26.0491 28.8267 12.1726 26.3158 11.0469C26.3158 11.0469 34.2452 15.0801 34.8399 25.6526L34.3773 26.0491Z" fill="#FF4D4D"/>
<path d="M31.2953 53.0233L30.9177 52.9053C35.6022 37.6294 36.7704 27.8899 34.2075 25.4497L34.4812 25.1618C37.1975 27.7365 36.0907 37.3721 31.2953 53.0233Z" fill="#444053"/>
<path d="M18.3911 88.7789L17.8294 88.5806C18.325 87.1812 18.8631 85.7605 19.4247 84.3587C24.3145 72.1743 28.4751 60.8371 31.1466 52.1336L31.6327 51.8976C28.9589 60.6294 24.8715 72.389 19.977 84.5899C19.4247 85.9752 18.8914 87.3865 18.3911 88.7789Z" fill="#444053"/>
<path d="M30.2168 172.871C30.1413 172.786 22.547 164.238 17.256 149.64C14.1531 141.095 12.4246 132.112 12.1349 123.026C11.7738 111.668 14.155 98.9833 18.24 87.4644L18.6837 87.9836C9.51769 113.839 13.1591 135.997 17.9899 149.342C23.2266 163.806 30.7336 172.264 30.8068 172.347L30.2168 172.871Z" fill="#444053"/>
<path opacity="0.1" d="M123.751 183.04C182.009 183.04 229.236 178.695 229.236 173.336C229.236 167.976 182.009 163.632 123.751 163.632C65.4932 163.632 18.266 167.976 18.266 173.336C18.266 178.695 65.4932 183.04 123.751 183.04Z" fill="#FF4D4D"/>
<path d="M117.594 178.839C157.803 178.839 190.398 146.244 190.398 106.035C190.398 65.826 157.803 33.2304 117.594 33.2304C77.3851 33.2304 44.7895 65.826 44.7895 106.035C44.7895 146.244 77.3851 178.839 117.594 178.839Z" fill="#FF4D4D"/>
<path d="M98.0889 101.81C102.258 101.81 105.638 97.3834 105.638 91.9223C105.638 86.4612 102.258 82.0341 98.0889 82.0341C93.9194 82.0341 90.5394 86.4612 90.5394 91.9223C90.5394 97.3834 93.9194 101.81 98.0889 101.81Z" fill="#444053"/>
<path d="M137.099 101.81C141.268 101.81 144.648 97.3834 144.648 91.9223C144.648 86.4612 141.268 82.0341 137.099 82.0341C132.929 82.0341 129.549 86.4612 129.549 91.9223C129.549 97.3834 132.929 101.81 137.099 101.81Z" fill="#444053"/>
<path d="M164.512 123.024C164.512 137.219 140.799 161.132 116.874 161.132C92.9489 161.132 70.1471 136.681 70.1471 122.484C70.1471 108.286 92.4651 121.271 116.402 121.271C140.339 121.271 164.512 108.827 164.512 123.024Z" fill="#444053"/>
<path d="M77.6753 125.45C77.6753 125.45 120.683 135.022 156.816 125.719C156.816 125.719 161.239 125.719 158.218 130.831C157.432 132.155 156.286 133.23 154.914 133.929C147.952 137.488 122.16 148.006 80.9297 134.593C79.6548 134.191 78.499 133.48 77.5652 132.523C76.6314 131.567 75.9485 130.395 75.5773 129.11C75.1006 127.355 75.3083 125.693 77.6753 125.45Z" fill="#F6F8FB"/>
<path opacity="0.05" d="M81.8194 51.8362C81.8194 51.8362 59.8884 65.859 60.0677 87.7829C60.2471 109.707 81.8194 51.8362 81.8194 51.8362Z" fill="black"/>
<path d="M215.591 171.835C215.213 170.332 214.297 170.306 214.297 170.306L214.283 170.155L213.946 166.442C213.933 166.461 213.917 166.478 213.899 166.492L213.88 166.02C213.877 165.931 213.869 165.842 213.856 165.753C214.395 165.361 214.793 164.806 214.991 164.17C214.852 163.993 214.956 164.028 214.956 164.028C214.956 164.028 212.664 161.682 212.893 160.46C213.122 159.237 211.168 157.909 211.168 157.909C211.168 157.909 210.46 155.724 210.46 155.06C210.46 154.397 207.784 150.043 207.784 150.043C207.784 150.043 205.424 144.504 203.352 142.125C201.28 139.747 201.464 138.451 201.464 138.451C201.283 138.2 201.129 137.93 201.004 137.646C200.913 137.45 200.834 137.248 200.768 137.042C201.193 136.988 201.476 136.978 201.476 136.978C201.476 136.978 203.173 136.688 203.248 136.339C203.342 135.945 203.542 135.584 203.826 135.296C204.15 134.949 202.906 128.341 203.567 126.632C204.227 124.924 202.719 117.084 202.719 117.084C202.756 116.846 202.841 116.619 202.97 116.416C203.099 116.213 203.268 116.038 203.468 115.904L204.468 115.51L204.976 115.387L205.044 115.371L205.148 115.345L205.384 115.286L205.452 115.267L205.599 115.227L205.653 115.213L205.889 115.139L205.967 115.114L206.078 115.076L206.163 115.043L206.276 114.998L206.401 114.939L206.474 114.901L206.552 114.856L206.613 114.816C206.646 114.794 206.676 114.769 206.705 114.743L206.753 114.696C206.772 114.676 206.79 114.656 206.807 114.634C206.818 114.62 206.829 114.604 206.838 114.587L206.852 114.568C206.893 114.484 206.91 114.39 206.901 114.297C206.892 114.204 206.858 114.115 206.802 114.04C206.555 113.686 206.252 113.375 205.905 113.117L205.36 112.279C205.359 112.274 205.359 112.268 205.36 112.263C205.36 112.22 205.377 112.173 205.389 112.126C205.428 111.949 205.437 111.767 205.415 111.588C205.416 111.578 205.416 111.567 205.415 111.557C205.422 111.501 205.426 111.444 205.426 111.387V111.314C205.426 111.26 205.426 111.205 205.415 111.151C205.403 111.097 205.415 111.097 205.415 111.069C205.415 111.04 205.396 110.965 205.384 110.913C205.372 110.861 205.37 110.851 205.36 110.821C205.351 110.79 205.334 110.724 205.318 110.674L205.282 110.578C205.266 110.533 205.247 110.486 205.228 110.441C205.209 110.396 205.2 110.372 205.183 110.339C205.167 110.306 205.146 110.254 205.124 110.212C205.103 110.169 205.089 110.143 205.072 110.11C205.056 110.077 205.03 110.03 205.006 109.99L204.95 109.891L204.884 109.782L204.82 109.683L204.756 109.587L204.692 109.494C204.671 109.466 204.65 109.435 204.629 109.41L204.567 109.325L204.511 109.251L204.452 109.176L204.402 109.115L204.35 109.051L204.31 109.006L204.268 108.956L204.239 108.923L204.209 108.89L204.192 108.871L204.176 108.855V108.827C204.176 108.812 204.176 108.796 204.176 108.775V108.751C204.176 108.73 204.176 108.706 204.176 108.678V108.652C204.176 108.619 204.176 108.581 204.161 108.541V108.527C204.129 108.282 204.109 108.035 204.102 107.788C204.109 107.531 204.167 107.277 204.272 107.042C204.304 106.985 204.319 106.92 204.316 106.855C204.314 106.789 204.293 106.726 204.256 106.672C204.263 106.655 204.271 106.638 204.279 106.622C204.442 106.309 204.133 106.04 203.746 105.839C203.746 105.263 203.51 104.095 201.603 103.885C201.603 103.885 200.487 103.132 201.565 101.78C202.644 100.428 200.931 96.9679 200.931 96.9679C200.931 96.9679 200.385 95.5519 200.678 94.9666C200.971 94.3814 200.338 89.1753 200.338 89.1753C200.338 89.1753 200.338 84.3728 199.276 82.3315C198.214 80.2901 197.49 76.6251 196.265 76.0823C195.04 75.5396 194.07 74.2274 194.07 74.2274L193.499 74.4115C193.4 74.2652 193.301 74.1189 193.207 73.9726C193.252 73.96 193.297 73.9442 193.341 73.9254C193.604 73.8072 193.82 73.6056 193.957 73.3519C193.997 73.2807 194.03 73.2065 194.058 73.1301C194.155 72.8525 194.201 72.56 194.195 72.2663C194.174 71.9735 194.183 71.6794 194.221 71.3884C194.318 70.9164 194.644 70.5388 194.929 70.1447C195.502 69.3604 195.867 68.4438 195.989 67.4803C196.105 66.512 195.866 65.5344 195.316 64.7286C195.038 64.3369 194.677 63.99 194.502 63.5487C194.422 63.3457 194.387 63.1286 194.325 62.9209C194.138 62.3435 193.786 61.8332 193.314 61.4526C192.841 61.072 192.267 60.8376 191.663 60.7781C190.66 60.686 189.671 61.0684 188.666 61.0566C187.5 61.0424 186.306 60.5091 185.213 60.915C184.724 61.1262 184.292 61.4496 183.951 61.8589C183.686 62.1515 183.438 62.4596 183.21 62.7817C183.075 62.9705 182.948 63.1616 182.827 63.3599V63.3764C182.705 63.577 182.591 63.7823 182.483 63.9923C182.458 64.0402 182.452 64.096 182.466 64.1481C182.496 64.2083 182.546 64.256 182.608 64.2826C182.8 64.3496 182.978 64.4521 183.132 64.5847C183.191 64.6523 183.255 64.7154 183.323 64.7735C183.29 64.8136 183.255 64.8514 183.222 64.8938C182.662 65.6076 182.271 66.4395 182.081 67.3265C181.89 68.2135 181.904 69.1323 182.121 70.0132C182.338 70.894 182.753 71.7139 183.334 72.4105C183.915 73.1072 184.648 73.6624 185.475 74.0339L185.596 74.2982C185.823 74.7995 186.013 75.317 186.164 75.8464L185.65 75.8935C185.644 76.0542 185.578 76.2067 185.465 76.3215C185.353 76.4362 185.202 76.5049 185.041 76.5142C184.439 76.5779 182.525 77.2859 182.525 77.2859C182.525 77.2859 179.649 78.7514 177.914 79.2164C176.18 79.6813 175.41 79.2848 175.41 79.2848C175.41 79.2848 175.214 80.545 173.251 79.8512C171.287 79.1574 171.028 79.8889 171.028 79.8889C171.028 79.8889 165.496 79.7379 161.468 80.276C157.439 80.814 155.683 80.4364 155.683 80.4364C155.683 80.4364 155.664 80.6488 155.643 80.9934L155.235 80.7574C152.559 79.3273 147.624 77.1089 146.921 79.8134C145.939 83.5728 154.56 85.1705 154.56 85.1705L155.197 85.1021L155.615 85.0572C155.695 86.1003 155.879 86.9452 156.264 87.0372C156.403 87.0726 160.528 87.0632 161.614 87.5706C162.699 88.078 165.038 87.3346 165.038 87.3346C165.038 87.3346 165.64 87.2024 166.549 87.7405C167.457 88.2786 172.394 88.2809 172.394 88.2809C172.394 88.2809 172.746 88.3564 174.008 88.7269C175.271 89.0975 177.499 88.7765 177.499 88.7765L182.707 89.4491C182.707 89.4491 183.078 93.0999 182.669 94.4262C182.261 95.7525 182.589 102.278 182.589 102.278C182.589 102.278 183.769 110.219 183.446 111.161C183.191 111.89 185.452 111.078 186.485 110.674C186.54 110.889 186.608 111.146 186.686 111.437C186.686 111.463 186.721 111.479 186.762 111.489L186.846 111.545C186.884 111.701 186.922 111.852 186.957 111.994L186.677 112.069L187.047 112.317C187.088 112.467 187.138 112.614 187.196 112.758C187.503 113.466 185.263 114.762 185.263 114.762C185.263 114.762 179.078 118.144 177.22 119.718C177.22 119.718 175.769 120.19 175.656 120.641C175.542 121.091 174.24 120.936 174.24 120.936C174.24 120.936 174.056 121.424 173.907 121.915C173.758 122.406 172.963 123.163 172.963 123.163C172.963 123.163 171.125 123.451 170.865 124.428C170.68 125.184 170.539 125.95 170.442 126.722L168.378 130.479C168.378 130.479 162.747 134.675 162.157 136.28L158.171 138.951C158.171 138.951 157.515 140.415 156.351 140.466C155.188 140.518 153.179 142.59 153.179 142.59C153.179 142.59 153.769 142.826 154.636 143.228C154.584 143.308 154.534 143.388 154.492 143.464C154.332 143.766 154.213 144.089 154.14 144.424C154.14 144.424 151.544 146.001 149.614 145.34C148.523 144.967 146.373 144.323 144.818 144.245C143.622 144.186 142.772 144.462 143.02 145.455C143.442 147.171 147.702 151.49 149.802 153.538C150.135 153.862 150.487 154.166 150.857 154.447C151.346 154.822 151.867 155.156 152.412 155.443C152.732 155.61 153.059 155.762 153.394 155.896C153.754 156.041 154.124 156.16 154.501 156.252C155.242 156.424 155.917 156.417 156.297 156.016C157.515 154.77 157.005 153.892 157.005 153.892L157.142 153.791L160.498 151.28L161.258 150.631L161.468 150.451C161.353 151.373 160.957 152.237 160.332 152.925C161.169 152.438 162.048 152.029 162.959 151.702C164.139 151.334 164.866 149.106 164.866 149.106C164.866 149.106 165.51 148.45 166.655 147.275C167.799 146.1 168.012 143.091 168.012 143.091C168.012 143.091 173.886 139.353 176.272 135.041C176.272 135.041 176.703 134.451 177.452 133.585C178.2 132.719 178.226 131.282 178.226 131.282C178.226 131.282 178.337 130.864 179.339 129.792C180.342 128.721 180.213 128.051 180.213 128.051C180.213 128.051 180.685 127.392 182.44 127.524C184.196 127.657 188.321 125.575 188.321 125.575C188.321 125.575 188.321 125.766 188.359 126.097C188 126.923 187.764 127.496 187.764 127.496C187.764 127.496 191.361 141.852 189.919 144.108C189.171 145.288 191.234 144.391 193.395 143.265C193.506 143.4 193.631 143.541 193.768 143.692C194.28 144.245 194.826 144.765 195.401 145.25L195.472 145.311C195.472 145.311 199.852 152.07 200.546 152.863C201.24 153.656 200.782 155.988 200.782 155.988C200.782 155.988 202.004 164.137 203.675 165.564C204.023 165.828 204.412 166.033 204.827 166.171C204.799 167.186 205.717 168.019 205.717 168.019C205.717 168.019 205.698 170.719 204.286 171.861C203.489 172.51 201.986 173.827 201.195 174.962C200.588 175.837 200.4 176.614 201.273 176.888C202.781 177.376 208.077 176.196 210.628 175.575C211.884 175.278 213.069 174.734 214.113 173.975C214.996 173.326 215.765 172.54 215.591 171.835ZM157.496 144.828C157.642 144.924 157.786 145.023 157.93 145.125L157.694 145.314L157.597 145.389C157.597 145.34 157.583 145.285 157.574 145.231C157.548 145.101 157.524 144.967 157.496 144.828Z" fill="url(#paint0_linear)"/>
<path d="M158.164 85.423L155.504 85.7038L154.876 85.7723C154.876 85.7723 146.38 84.1888 147.348 80.4742C148.042 77.7862 152.908 79.9857 155.549 81.4182C156.559 81.9633 157.241 82.3928 157.241 82.3928L158.164 85.423Z" fill="#D17483"/>
<path d="M164.413 148.216L161.501 150.72L160.75 151.365L159.004 151.893L154.678 148.075L157.892 145.512L157.987 145.434L160.587 143.362L164.413 148.216Z" fill="#DCE6F2"/>
<path d="M210.675 163.478L206.564 163.669L207.692 168.694L209.233 169.225L213.526 168.866L213.41 165.982C213.396 165.638 213.314 165.3 213.168 164.987C213.023 164.675 212.817 164.394 212.563 164.161C212.309 163.929 212.011 163.749 211.687 163.631C211.363 163.514 211.019 163.462 210.675 163.478Z" fill="#DCE6F2"/>
<path opacity="0.1" d="M157.864 145.366C156.897 144.707 155.882 144.124 154.827 143.619C154.96 143.33 155.156 143.073 155.401 142.869C155.646 142.665 155.934 142.518 156.243 142.439C157.172 142.243 157.647 144.044 157.864 145.366Z" fill="black"/>
<path opacity="0.1" d="M161.498 150.72C161.675 148.622 159.915 146.793 157.987 145.436L160.583 143.362L164.406 148.216L161.498 150.72Z" fill="black"/>
<path d="M214.503 164.146C213.297 168.127 205.002 166.931 203.354 165.515C201.707 164.099 200.499 156.014 200.499 156.014C200.499 156.014 200.952 153.689 200.263 152.913C199.574 152.136 195.26 145.432 195.26 145.432C195.26 145.432 195.212 145.392 195.189 145.373C194.62 144.891 194.082 144.375 193.577 143.827C192.248 142.371 192.22 141.668 192.22 141.668C192.22 141.668 191.748 138.911 190.122 135.168C188.942 132.407 188.454 128.655 188.286 126.873C188.227 126.238 188.206 125.854 188.206 125.854C188.206 125.854 184.142 127.916 182.405 127.786C180.668 127.657 180.206 128.31 180.206 128.31C180.206 128.31 180.335 128.973 179.347 130.038C178.358 131.102 178.247 131.515 178.247 131.515C178.247 131.515 178.226 132.943 177.482 133.8C176.739 134.656 176.314 135.244 176.314 135.244C173.954 139.522 168.163 143.23 168.163 143.23C168.163 143.23 167.948 146.218 166.815 147.383C165.682 148.549 165.05 149.201 165.05 149.201C165.05 149.201 164.323 151.417 163.162 151.782C162.261 152.105 161.392 152.512 160.566 152.995C165.345 147.258 153.517 142.737 153.517 142.737C153.517 142.737 155.495 140.679 156.644 140.627C157.793 140.575 158.44 139.124 158.44 139.124L162.371 136.469C162.952 134.876 168.507 130.715 168.507 130.715L170.544 126.989C170.64 126.229 170.779 125.476 170.962 124.733C171.217 123.765 173.031 123.477 173.031 123.477C173.031 123.477 173.808 122.722 173.952 122.238C174.096 121.754 174.28 121.268 174.28 121.268C174.28 121.268 175.564 121.429 175.674 120.976C175.785 120.523 177.218 120.06 177.218 120.06C179.052 118.486 185.152 115.132 185.152 115.132C185.152 115.132 187.361 113.844 187.059 113.143C187.001 113.001 186.951 112.855 186.91 112.706C186.91 112.692 186.91 112.68 186.91 112.669C186.883 112.579 186.857 112.485 186.832 112.385C186.554 111.307 186.247 109.653 186.247 109.653C186.247 109.653 196.982 103.411 200.506 104.994C201.535 105.454 202.134 106.615 202.448 108.097C202.951 110.469 202.722 113.66 202.337 116.109C202.189 117.118 201.973 118.115 201.693 119.095C200.853 121.797 200.69 125.792 200.69 125.792C200.69 125.792 200.579 133.408 200.308 135.282C200.196 136.154 200.336 137.039 200.709 137.835C200.832 138.116 200.985 138.383 201.164 138.633C201.164 138.633 200.971 139.917 203.024 142.279C205.077 144.641 207.395 150.13 207.395 150.13C207.395 150.13 210.045 154.447 210.035 155.11C210.026 155.773 210.724 157.942 210.724 157.942C210.724 157.942 212.652 159.254 212.426 160.469C212.199 161.685 214.46 164.009 214.46 164.009C214.46 164.009 214.366 163.969 214.503 164.146Z" fill="#BDD2E8"/>
<path opacity="0.1" d="M187.049 115.09C187.049 115.09 189.362 116.201 189.551 117.528C189.74 118.854 187.049 115.09 187.049 115.09Z" fill="black"/>
<path opacity="0.1" d="M178.209 122.717L179.474 124.197L178.818 121.509L177.428 121.419L178.209 122.717Z" fill="black"/>
<path opacity="0.1" d="M176.744 125.861C176.88 125.967 178.431 129.434 178.846 129.474C179.262 129.514 176.744 125.861 176.744 125.861Z" fill="black"/>
<path opacity="0.1" d="M202.347 116.102C202.198 117.111 201.983 118.108 201.702 119.088C200.862 121.79 200.699 125.785 200.699 125.785C200.699 125.785 200.588 133.401 200.317 135.275C200.206 136.147 200.345 137.032 200.718 137.828C200.01 137.896 198.696 138.102 197.799 138.68C196.536 139.496 197.268 141.734 197.268 141.734C197.268 141.734 195.448 142.829 193.584 143.82C192.255 142.364 192.227 141.661 192.227 141.661C192.227 141.661 191.755 138.904 190.129 135.161C188.949 132.4 188.461 128.648 188.293 126.866C189.001 125.214 190.169 122.67 190.955 121.573C191.788 120.409 190.795 116.888 190.101 114.828L189.91 114.698L187.628 113.167L186.934 112.695L186.57 112.459L186.846 112.383L202.467 108.097C202.96 110.469 202.731 113.66 202.347 116.102Z" fill="black"/>
<path d="M186.575 111.836L187.632 112.543L189.912 114.075L190.106 114.205C190.799 116.265 191.793 119.786 190.957 120.95C189.752 122.637 187.654 127.756 187.654 127.756C187.654 127.756 191.193 141.996 189.778 144.235C188.362 146.475 197.275 141.118 197.275 141.118C197.275 141.118 196.546 138.881 197.808 138.064C199.071 137.247 201.195 137.174 201.195 137.174C201.195 137.174 202.868 136.886 202.944 136.539C203.035 136.149 203.233 135.791 203.515 135.506C203.831 135.161 202.606 128.605 203.258 126.911C203.909 125.216 202.42 117.438 202.42 117.438C202.455 117.201 202.538 116.973 202.666 116.77C202.794 116.567 202.962 116.392 203.161 116.258C203.347 116.129 203.553 116.031 203.77 115.965L203.904 115.928C203.984 115.904 204.069 115.883 204.14 115.866C205.155 115.614 206.264 115.394 206.5 114.922L206.264 114.564L205.02 112.643C204.995 112.455 205.007 112.264 205.056 112.081C205.056 112.043 205.07 112.003 205.075 111.965C205.256 110.74 203.845 109.254 203.845 109.254C203.783 108.905 203.746 108.551 203.737 108.196V108.185C203.708 107.81 203.759 107.433 203.888 107.08L186.575 111.836Z" fill="#653C5B"/>
<path opacity="0.1" d="M190.552 114.549C190.429 114.523 198.165 114.8 200.555 117.853C200.555 117.86 200.64 116.749 190.552 114.549Z" fill="black"/>
<path opacity="0.1" d="M196.65 119.642C196.65 119.642 198.193 130.734 197.851 132.667C197.509 134.6 199.649 133.354 199.649 133.354C199.649 133.354 201.832 117.254 196.65 119.642Z" fill="black"/>
<path d="M203.904 115.928L203.77 115.965C199.118 114.993 193.74 114.236 189.959 113.773C189.723 113.096 189.553 112.662 189.553 112.662L186.707 111.873L186.629 111.6C186.492 111.106 186.379 110.656 186.313 110.396L186.249 110.143C186.249 110.143 188.137 109.296 190.811 108.279C191.701 107.937 192.678 107.571 193.7 107.227L202.347 105.858C202.662 105.939 202.97 106.047 203.267 106.181C203.708 106.386 204.11 106.679 203.928 107.028C203.571 107.717 203.864 109.251 203.864 109.251C203.864 109.251 205.37 110.837 205.075 112.083C204.78 113.329 205.922 113.488 206.465 114.398C207.008 115.309 205.299 115.564 203.904 115.928Z" fill="#653C5B"/>
<path d="M195.963 78.5296C195.963 78.5296 184.612 79.4405 185.914 78.4163C186.566 77.9042 186.117 76.3797 185.504 74.985C185.097 74.0763 184.636 73.1929 184.123 72.3395C184.123 72.3395 192.751 69.8474 191.826 71.2633C191.552 71.681 191.8 72.4858 192.298 73.4132C193.452 75.6269 195.963 78.5296 195.963 78.5296Z" fill="#D17483"/>
<path opacity="0.1" d="M192.291 73.4203C192.055 73.7012 191.444 73.366 191.149 73.5973C190.117 74.4044 189.14 75.4735 187.731 75.4522C186.965 75.4405 186.209 75.2802 185.504 74.9802C185.097 74.0716 184.636 73.1882 184.123 72.3347C184.123 72.3347 192.751 69.8474 191.826 71.2633C191.552 71.6881 191.8 72.4929 192.291 73.4203Z" fill="black"/>
<path d="M193.766 69.3754C193.749 70.5515 193.384 71.6962 192.716 72.6647C192.049 73.6332 191.109 74.382 190.016 74.8164C188.923 75.2508 187.725 75.3513 186.575 75.1052C185.425 74.859 184.373 74.2773 183.554 73.4336C182.734 72.5899 182.183 71.5221 181.97 70.3652C181.758 69.2084 181.893 68.0144 182.359 66.9343C182.825 65.8543 183.6 64.9366 184.588 64.2974C185.575 63.6582 186.73 63.3262 187.906 63.3433C188.688 63.3519 189.46 63.5151 190.178 63.8234C190.897 64.1317 191.547 64.5791 192.091 65.1398C192.636 65.7004 193.064 66.3633 193.352 67.0903C193.639 67.8172 193.78 68.5938 193.766 69.3754Z" fill="#D17483"/>
<path opacity="0.1" d="M203.371 107.191C202.436 107.203 201.503 107.105 200.591 106.899C199.135 106.563 197.9 107.868 197.9 107.868C197.9 107.868 195.069 108.975 193.782 108.749C192.496 108.522 186.856 111.498 186.856 111.498L186.62 111.59C186.483 111.097 186.37 110.646 186.304 110.387L186.24 110.134C186.24 110.134 188.128 109.287 190.802 108.27C191.691 107.927 192.668 107.562 193.69 107.217L202.337 105.848C202.653 105.93 202.961 106.038 203.257 106.172C203.385 106.495 203.424 106.847 203.371 107.191Z" fill="black"/>
<path opacity="0.1" d="M158.164 85.423L155.504 85.7038C155.426 84.2719 155.441 82.8364 155.549 81.4064C156.559 81.9515 157.241 82.381 157.241 82.381L158.164 85.423Z" fill="black"/>
<path d="M193.86 74.8811C193.86 74.8811 192.182 75.4121 191.238 75.7826C190.294 76.1531 185.558 76.5685 185.558 76.5685C185.553 76.7277 185.489 76.8793 185.378 76.9937C185.267 77.108 185.117 77.1769 184.959 77.1868C184.366 77.2458 182.478 77.9491 182.478 77.9491C182.478 77.9491 179.646 79.4028 177.928 79.8653C176.21 80.3279 175.457 79.9338 175.457 79.9338C175.457 79.9338 175.266 81.1822 173.333 80.4931C171.401 79.804 171.141 80.5308 171.141 80.5308C171.141 80.5308 165.682 80.3822 161.701 80.9155C157.72 81.4489 155.995 81.076 155.995 81.076C155.995 81.076 155.478 87.3346 156.561 87.6225C156.698 87.6602 160.769 87.6484 161.838 88.1511C162.907 88.6538 165.215 87.9151 165.215 87.9151C165.215 87.9151 165.81 87.7853 166.707 88.321C167.603 88.8567 172.472 88.8567 172.472 88.8567C172.472 88.8567 172.819 88.9299 174.065 89.298C175.311 89.6662 177.506 89.3476 177.506 89.3476L182.643 90.0202C182.643 90.0202 183.009 93.6427 182.608 94.9572C182.207 96.2717 182.528 102.745 182.528 102.745C182.528 102.745 183.708 110.623 183.375 111.557C183.042 112.492 186.861 110.877 186.861 110.877C186.861 110.877 192.506 107.899 193.787 108.126C195.069 108.352 197.905 107.248 197.905 107.248C197.905 107.248 199.142 105.943 200.598 106.278C201.509 106.482 202.442 106.577 203.376 106.561C203.376 106.561 203.786 104.586 201.287 104.305C201.287 104.305 200.185 103.559 201.247 102.219C202.309 100.878 200.626 97.4587 200.626 97.4587C200.626 97.4587 200.09 96.0593 200.376 95.4717C200.662 94.884 200.043 89.7299 200.043 89.7299C200.043 89.7299 200.043 84.9652 198.995 82.9309C197.948 80.8966 197.233 77.267 196.024 76.7337C194.816 76.2003 193.86 74.8811 193.86 74.8811Z" fill="#DCE6F2"/>
<path opacity="0.1" d="M187.54 90.8509C187.54 90.8509 194.901 94.1241 196.879 96.7625C198.856 99.401 187.54 90.8509 187.54 90.8509Z" fill="black"/>
<path opacity="0.1" d="M190.45 96.4628C190.45 96.4628 199.347 101.636 198.738 102.948C198.129 104.26 190.45 96.4628 190.45 96.4628Z" fill="black"/>
<path opacity="0.1" d="M191.904 101.666C191.904 101.666 195.12 102.967 195.701 103.706C196.282 104.444 191.904 101.666 191.904 101.666Z" fill="black"/>
<path opacity="0.1" d="M177.173 81.489C177.173 81.489 183.972 85.1351 182.804 86.6148C181.636 88.0945 177.173 81.489 177.173 81.489Z" fill="black"/>
<path opacity="0.1" d="M169.9 84.7575C169.9 84.8967 173.44 87.0679 171.979 87.639C170.518 88.2101 169.9 84.7575 169.9 84.7575Z" fill="black"/>
<path opacity="0.1" d="M172.592 128.513C172.696 128.653 173.064 130.014 174.197 130.623C175.33 131.232 172.592 128.513 172.592 128.513Z" fill="black"/>
<path opacity="0.1" d="M161.975 138.826C161.959 139.973 161.765 143.624 162.7 144.018C163.634 144.412 161.975 138.826 161.975 138.826Z" fill="black"/>
<path opacity="0.1" d="M164.571 142.062C164.571 142.062 166.709 145.675 165.97 146.291C165.232 146.907 164.382 145.432 164.382 145.432L164.571 142.062Z" fill="black"/>
<path opacity="0.1" d="M202.644 149.923C203.513 150.091 204.398 150.162 205.282 150.135C206.715 150.086 202.644 149.923 202.644 149.923Z" fill="black"/>
<path opacity="0.1" d="M201.523 148.167C201.523 148.167 204.159 148.658 205.105 148.15C206.052 147.643 201.523 148.167 201.523 148.167Z" fill="black"/>
<path opacity="0.1" d="M200.485 145.366C200.485 145.366 203.123 145.578 203.659 144.681C204.194 143.784 200.485 145.366 200.485 145.366Z" fill="black"/>
<path opacity="0.1" d="M199.741 143.898C199.741 143.898 202.273 144.318 202.698 143.733C203.123 143.147 199.741 143.898 199.741 143.898Z" fill="black"/>
<path opacity="0.1" d="M197.275 138.576C197.275 138.576 200.003 139.867 200.305 140.603C200.607 141.34 197.275 138.576 197.275 138.576Z" fill="black"/>
<path opacity="0.1" d="M193.766 69.3754C193.754 70.2645 193.543 71.1396 193.147 71.9358C192.751 72.732 192.181 73.4289 191.479 73.9749C191.463 73.9442 191.448 73.9135 191.434 73.8829C191.175 73.3283 191.109 72.7029 190.868 72.1507C190.797 71.9401 190.646 71.7661 190.448 71.6669C190.065 71.5182 189.686 71.8675 189.433 72.1813C189.18 72.4952 188.805 72.8492 188.421 72.71C188.207 72.6078 188.039 72.4304 187.949 72.212C187.554 71.504 187.146 70.7559 187.12 69.9488C187.149 69.5514 187.153 69.1527 187.134 68.7547C187.033 68.0609 186.511 67.478 185.912 67.0862C185.286 66.7259 184.635 66.4105 183.965 66.1422C183.662 66.0144 183.382 65.8356 183.139 65.6136C183.908 64.6364 184.964 63.9249 186.159 63.5791C187.353 63.2334 188.626 63.2707 189.798 63.6859C190.97 64.1011 191.983 64.8733 192.693 65.8938C193.404 66.9144 193.776 68.132 193.759 69.3754H193.766Z" fill="black"/>
<path d="M182.407 64.731C182.263 65.0661 182.811 65.0354 183.049 65.3186C183.308 65.589 183.621 65.8014 183.967 65.9417C184.637 66.2114 185.288 66.5268 185.914 66.8856C186.516 67.2797 187.035 67.8603 187.137 68.5565C187.155 68.9536 187.151 69.3515 187.125 69.7482C187.151 70.5577 187.557 71.3011 187.951 72.0138C188.044 72.2308 188.211 72.4074 188.423 72.5117C188.81 72.6486 189.18 72.297 189.435 71.9831C189.69 71.6692 190.07 71.32 190.452 71.4663C190.65 71.5662 190.8 71.7401 190.87 71.9501C191.106 72.5094 191.177 73.13 191.437 73.6846C191.696 74.2392 192.253 74.7395 192.876 74.6569C193.062 74.6236 193.239 74.5479 193.391 74.4358C193.544 74.3238 193.669 74.1782 193.756 74.0103C193.925 73.6783 194.006 73.3087 193.992 72.9365C193.971 72.6461 193.98 72.3543 194.018 72.0657C194.115 71.5937 194.434 71.2208 194.707 70.8315C195.27 70.0541 195.628 69.1475 195.748 68.1954C195.861 67.2359 195.626 66.2677 195.085 65.4673C194.811 65.0779 194.453 64.7334 194.28 64.2873C194.202 64.0867 194.167 63.872 194.106 63.6643C193.922 63.0929 193.576 62.5874 193.11 62.2101C192.643 61.8328 192.076 61.6 191.479 61.5403C190.493 61.4483 189.516 61.8283 188.524 61.8165C187.375 61.8047 186.188 61.2737 185.117 61.6772C184.633 61.889 184.207 62.2125 183.873 62.6212C183.293 63.2601 182.802 63.9746 182.414 64.7452" fill="#653C5B"/>
<path d="M157.439 153.861L157.302 153.963C157.302 153.963 157.812 154.841 156.611 156.087C156.047 156.665 154.855 156.401 153.748 155.959C152.426 155.42 151.223 154.626 150.208 153.621C148.139 151.589 143.936 147.306 143.518 145.597C143.282 144.61 144.113 144.337 145.293 144.396C146.826 144.474 148.946 145.104 150.012 145.484C151.915 146.137 154.475 144.575 154.475 144.575C154.549 144.247 154.666 143.929 154.822 143.631C154.955 143.341 155.152 143.085 155.397 142.881C155.642 142.677 155.929 142.53 156.238 142.451C157.158 142.265 157.633 144.065 157.852 145.375C157.852 145.427 157.869 145.481 157.878 145.533C157.982 146.187 158.022 146.685 158.022 146.685C159.658 146.572 160.354 148.946 160.266 150.161C160.179 151.376 160.738 151.386 160.738 151.386L157.439 153.861Z" fill="#FFD6DB"/>
<path d="M157.302 153.956C157.302 153.956 157.812 154.834 156.611 156.08C156.047 156.658 154.855 156.396 153.748 155.952C152.425 155.414 151.222 154.619 150.208 153.614C148.136 151.582 143.936 147.298 143.518 145.59C143.282 144.603 144.113 144.33 145.293 144.389C145.394 145.385 145.649 146.749 146.272 147.473C147.334 148.705 150.366 152.854 154.159 152.901C155.323 152.885 156.466 153.213 157.444 153.845L157.302 153.956Z" fill="#C8A9B4"/>
<path opacity="0.1" d="M150.44 150.031C150.44 150.031 154.097 147.232 157.172 148.495C157.172 148.495 154.463 148.28 150.44 150.031Z" fill="black"/>
<path opacity="0.1" d="M154.586 149.361C154.586 149.361 158.083 150.456 158.78 150.465C159.476 150.475 155.183 149.092 154.586 149.361Z" fill="black"/>
<path opacity="0.1" d="M205.66 157.751C205.66 157.751 209.858 157.838 209.993 158.791C210.127 159.745 208.426 159.688 208.426 159.688L205.66 157.751Z" fill="black"/>
<path d="M213.807 170.077L213.821 170.228C213.821 170.228 214.725 170.256 215.095 171.745C215.27 172.453 214.51 173.225 213.651 173.869C212.621 174.62 211.452 175.16 210.212 175.457C207.697 176.071 202.472 177.241 200.985 176.76C200.124 176.479 200.31 175.717 200.909 174.848C201.688 173.72 203.17 172.415 203.958 171.781C205.348 170.648 205.374 167.969 205.374 167.969C205.374 167.969 204.14 166.846 204.591 165.626C205.042 164.406 208.638 166.263 208.638 166.263C209.323 164.97 211.449 165.555 212.329 166.197C213.209 166.839 213.479 166.419 213.479 166.419L213.807 170.077Z" fill="#FFD6DB"/>
<path d="M213.821 170.228C213.821 170.228 214.725 170.256 215.095 171.745C215.27 172.453 214.51 173.225 213.651 173.869C212.621 174.62 211.452 175.16 210.212 175.457C207.697 176.071 202.472 177.241 200.985 176.76C200.124 176.479 200.31 175.717 200.909 174.848C201.712 175.238 202.863 175.686 203.708 175.556C205.141 175.32 209.714 174.981 211.539 172.132C212.077 171.242 212.866 170.531 213.807 170.088L213.821 170.228Z" fill="#C8A9B4"/>
<path opacity="0.1" d="M207.614 173.588C207.614 173.588 207.213 169.498 209.618 167.757C209.618 167.757 208.18 169.713 207.614 173.588Z" fill="black"/>
<path opacity="0.1" d="M209.058 170.126C209.058 170.126 211.531 168.002 211.867 167.467C212.202 166.931 209.134 169.548 209.058 170.126Z" fill="black"/>
<path opacity="0.1" d="M203.583 109.28C203.583 109.28 200.395 110.932 198.075 110.278C195.755 109.624 203.583 109.28 203.583 109.28Z" fill="black"/>
<path opacity="0.1" d="M204.718 112.6C204.718 112.6 204.218 113.497 201.091 113.277C197.964 113.058 204.718 112.6 204.718 112.6Z" fill="black"/>
<g opacity="0.1">
<path opacity="0.1" d="M194.571 71.0273L194.703 70.8433C194.799 70.704 194.892 70.5601 194.976 70.4137C194.828 70.6094 194.693 70.8143 194.571 71.0273Z" fill="black"/>
<path opacity="0.1" d="M193.249 74.0953C192.628 74.1779 192.069 73.6752 191.809 73.123C191.55 72.5707 191.484 71.943 191.243 71.3884C191.173 71.1784 191.023 71.0046 190.825 70.9046C190.443 70.7583 190.063 71.1076 189.808 71.4215C189.553 71.7353 189.183 72.087 188.796 71.9501C188.583 71.8468 188.416 71.6698 188.324 71.4521C187.927 70.7441 187.521 69.996 187.495 69.1889C187.518 68.7912 187.518 68.3925 187.495 67.9948C187.396 67.2986 186.875 66.7181 186.273 66.3263C185.671 65.9346 184.98 65.6891 184.326 65.3823C183.98 65.242 183.668 65.0297 183.41 64.7593C183.174 64.4761 182.622 64.5068 182.769 64.1717C182.877 63.9546 183.005 63.7445 183.123 63.5369C182.851 63.92 182.607 64.3223 182.393 64.7404C182.249 65.0755 182.797 65.0449 183.035 65.3281C183.294 65.5985 183.607 65.8108 183.953 65.9511C184.623 66.2208 185.274 66.5362 185.9 66.8951C186.502 67.2892 187.021 67.8697 187.123 68.5659C187.141 68.9631 187.137 69.361 187.111 69.7577C187.137 70.5671 187.543 71.3105 187.937 72.0232C188.03 72.2402 188.197 72.4168 188.409 72.5212C188.796 72.6581 189.166 72.3064 189.421 71.9926C189.676 71.6787 190.056 71.3294 190.438 71.4757C190.636 71.5757 190.786 71.7495 190.856 71.9595C191.092 72.5188 191.163 73.1395 191.422 73.6941C191.682 74.2487 192.239 74.749 192.862 74.6664C193.048 74.633 193.225 74.5574 193.377 74.4453C193.53 74.3332 193.655 74.1876 193.742 74.0197C193.78 73.9488 193.813 73.8755 193.841 73.8003C193.677 73.9541 193.471 74.0566 193.249 74.0953Z" fill="black"/>
</g>
<path opacity="0.1" d="M185.412 77.0192C185.412 77.0192 188.128 76.8847 189.936 76.9461C191.743 77.0074 194.42 75.549 194.42 75.549" fill="black"/>
<path d="M73.0899 95.9271C72.8162 94.5348 70.2415 94.7589 68.37 95.1177C68.2119 95.1483 68.0585 95.179 67.9122 95.2121L68.0467 94.6527L67.1665 94.2893C65.4367 93.5755 63.6268 93.0739 61.7764 92.7955C59.0671 92.3896 54.772 91.5187 52.1312 89.8314C49.7312 88.2974 48.7683 87.8537 48.0981 87.4407C48.0981 87.318 48.0981 87.2048 48.0981 87.0797C48.0981 86.3953 48.058 85.7675 48.0061 85.2082C47.9569 84.6939 47.8573 84.1857 47.7087 83.6908C47.147 81.8288 45.8821 81.2317 44.6148 80.0659C43.7848 79.284 42.8441 78.6288 41.823 78.1213C41.9268 77.5049 42.1076 76.9039 42.3611 76.3325C42.3965 76.2452 42.4342 76.1602 42.4696 76.0729C42.4696 76.0611 42.4696 76.0516 42.4861 76.0398C42.5239 75.9525 42.5617 75.8652 42.5994 75.7826C43.5153 75.2846 44.2804 74.5496 44.8148 73.6545C45.3491 72.7594 45.633 71.737 45.6367 70.6946C45.6366 69.9337 45.4855 69.1805 45.1922 68.4785C44.8989 67.7764 44.4692 67.1396 43.9281 66.6048C43.8368 66.5151 43.7424 66.4278 43.6449 66.3428L43.9186 66.2531C44.5015 66.0455 45.1364 65.4744 44.9664 64.9882H44.8815C44.8773 64.9536 44.8693 64.9196 44.8579 64.8867C44.599 64.878 44.3502 64.7843 44.1499 64.6201C43.8785 64.285 43.7959 63.7823 43.298 63.3127C43.1861 63.1929 43.0619 63.0853 42.9274 62.9917C42.5644 62.747 42.1559 62.5777 41.7262 62.4937C41.7616 62.5173 41.7994 62.5362 41.8348 62.5622L41.9079 62.6188C40.9191 62.3828 39.8029 62.4182 38.8636 62.0147C38.6377 61.9143 38.4206 61.7951 38.2146 61.6583L38.3374 61.6914C37.83 61.3987 37.3745 61.0235 36.8482 60.7474C36.5565 60.6004 36.2484 60.4887 35.9302 60.4146L36.1662 60.5539C34.7703 60.2307 33.3034 60.4662 32.0788 61.2099C30.6274 62.0642 29.5985 63.4354 28.8338 64.8773C27.5486 67.2978 26.9219 70.0135 27.0167 72.7524C27.0639 74.074 27.2763 75.4451 26.7807 76.6865C26.3701 77.7249 25.5087 78.5508 24.9942 79.5467C23.0095 83.3982 26.665 88.4012 24.4255 92.1252C23.616 93.4728 22.167 94.3648 21.1805 95.6038C20.1941 96.8428 19.8377 98.8464 21.1522 99.7762C22.0962 100.446 23.439 100.229 24.5647 100.569C24.3725 101.73 23.8085 102.796 22.9576 103.609L22.7735 103.573C22.731 103.613 22.6909 103.656 22.6461 103.694L22.8207 103.739L22.7546 103.802C23.986 104.159 25.2517 104.383 26.5305 104.472C27.6657 104.553 28.8669 104.51 29.8533 103.972C30.353 103.689 30.7937 103.312 31.1513 102.863C31.1513 103.099 31.1678 103.307 31.182 103.521C31.2169 104.39 31.3403 105.253 31.5501 106.096C32.6428 110.058 29.1902 113.164 29.1902 113.164C28.3445 114.886 27.9467 116.794 28.0338 118.71C28.0977 119.87 28.3364 121.015 28.7418 122.104C28.7748 122.191 28.8055 122.276 28.8386 122.359C28.9023 122.524 28.9707 122.684 29.0368 122.831C29.1383 123.067 29.2397 123.272 29.3412 123.465C29.4073 123.597 29.4734 123.72 29.5371 123.833C29.7584 124.241 30.0126 124.63 30.297 124.997C30.6463 124.759 30.9955 124.535 31.3448 124.324C31.3448 124.459 31.3448 124.6 31.3448 124.747C31.3637 126.208 31.2174 128.051 31.2174 128.051C31.2174 128.051 30.1224 131.961 30.0138 133.087C29.9053 134.213 29.4828 141.174 29.4828 141.174C29.4828 141.174 28.0055 145.675 25.2727 148.405C22.5399 151.136 23.1487 158.957 23.1487 158.957C23.1487 158.957 21.2348 165.543 21.8909 165.864C21.9969 165.898 22.1097 165.904 22.2189 165.883V166.15C21.0389 166.969 20.1421 167.632 20.1421 167.632C20.1421 167.632 19.8141 173.041 19.3752 174.086C18.9362 175.132 19.9227 176.364 19.9227 176.364C19.9227 176.364 29.6575 176.095 30.5047 176.04C30.8941 176.017 32.192 175.594 33.5349 174.997C34.6889 174.74 38.1722 173.383 39.4347 172.12C39.6218 171.953 39.7728 171.749 39.8784 171.521C40.4802 170.02 35.0381 171.146 33.5608 171.146C32.0835 171.146 31.9206 170.02 31.2363 169.163C30.5519 168.307 31.0451 166.888 31.0451 166.888L30.9035 162.876L31.5525 162.615C31.5525 162.615 32.428 159.186 33.8487 157.526C35.2694 155.867 37.7875 149.545 37.8418 149.224C37.896 148.903 37.9503 148.313 38.9887 146.864C40.0271 145.415 41.0466 142.319 41.0466 142.319C41.0466 142.319 43.4065 134.928 45.2024 131.126C46.3045 128.801 46.9181 124.683 47.2273 121.828C47.5669 121.92 47.901 122.032 48.2279 122.163C48.2279 122.163 48.7329 118.927 48.9359 115.234C49.0564 113.347 49.0414 111.454 48.891 109.57C48.6031 106.502 46.8119 100.562 46.9181 95.0351C47.35 95.3135 47.7701 95.5778 48.1477 95.8138C48.1477 95.6746 48.1642 95.5377 48.1736 95.3985C49.1412 96.0003 49.8397 96.4133 49.8397 96.4133C49.8397 96.4133 55.6358 99.6252 60.7215 99.6794C65.8071 99.7337 66.6827 100.321 66.6827 100.321L67.0036 98.9951L67.4591 98.9101C69.6019 98.4995 73.4038 97.5248 73.0899 95.9271Z" fill="url(#paint1_linear)"/>
<path d="M45.5659 65.2148L45.3015 65.0189C45.3494 65.0735 45.3863 65.1368 45.4101 65.2053L45.5659 65.2148Z" fill="url(#paint2_linear)"/>
<path d="M44.9712 64.9882H45.1293L44.9806 64.8773H45.0207L44.7564 64.6838C44.8032 64.7379 44.8392 64.8003 44.8626 64.8679H44.9216C44.9431 64.9057 44.9598 64.9462 44.9712 64.9882Z" fill="url(#paint3_linear)"/>
<path d="M37.7049 74.6735H33.4971V81.2412H37.7049V74.6735Z" fill="#965D7B"/>
<path opacity="0.1" d="M37.7049 74.6735H33.4971V81.2412H37.7049V74.6735Z" fill="black"/>
<path d="M22.8797 167.903H26.7052V162.749H22.8797V167.903Z" fill="#E8F4FF"/>
<path d="M33.9667 74.7726C34.9933 75.1643 36.1497 77.2387 36.2063 78.9709C36.2299 79.7521 35.3119 81.0783 35.3119 81.0783L36.2559 80.9674C36.7397 80.9037 37.3674 80.8187 38.0329 80.7196C38.5899 80.6347 39.1728 80.5403 39.7203 80.4388C41.2236 80.1603 42.4531 79.8276 42.1156 79.5208C41.9528 79.3721 41.9103 79.0865 41.9528 78.7231C42.055 78.1125 42.2309 77.5166 42.4767 76.9484C42.5499 76.762 42.6301 76.5779 42.7127 76.4033C43.0596 75.6103 43.3947 74.9873 43.3947 74.9873C43.3947 74.9873 40.1828 74.7513 37.4948 74.6404C36.5768 74.6003 35.7178 74.5743 35.0617 74.572H34.8045C33.9903 74.5672 33.5986 74.6333 33.9667 74.7726Z" fill="#FFC1C7"/>
<path d="M47.4609 118.984C47.4609 118.984 46.9889 127.539 45.2308 131.31C43.4726 135.081 41.1929 142.416 41.1929 142.416C41.1929 142.416 40.1828 145.498 39.1728 146.933C38.1627 148.368 38.1108 148.953 38.0565 149.271C38.0022 149.59 35.5597 155.86 34.1768 157.508C32.7938 159.155 31.9466 162.556 31.9466 162.556C31.9466 162.556 25.8886 165.104 25.2514 164.786C24.6143 164.467 26.4739 157.942 26.4739 157.942C26.4739 157.942 25.8886 150.182 28.5459 147.473C31.2032 144.764 32.6381 140.301 32.6381 140.301C32.6381 140.301 33.0629 133.391 33.1691 132.277C33.2753 131.164 34.3372 127.281 34.3372 127.281C34.3372 127.281 34.6558 123.189 34.2853 122.394C33.9148 121.599 47.4609 118.984 47.4609 118.984Z" fill="#575A89"/>
<path opacity="0.05" d="M47.4609 118.984C47.4609 118.984 46.9889 127.539 45.2308 131.31C43.4726 135.081 41.1929 142.416 41.1929 142.416C41.1929 142.416 40.1828 145.498 39.1728 146.933C38.1627 148.368 38.1108 148.953 38.0565 149.271C38.0022 149.59 35.5597 155.86 34.1768 157.508C32.7938 159.155 31.9466 162.556 31.9466 162.556C31.9466 162.556 25.8886 165.104 25.2514 164.786C24.6143 164.467 26.4739 157.942 26.4739 157.942C26.4739 157.942 25.8886 150.182 28.5459 147.473C31.2032 144.764 32.6381 140.301 32.6381 140.301C32.6381 140.301 33.0629 133.391 33.1691 132.277C33.2753 131.164 34.3372 127.281 34.3372 127.281C34.3372 127.281 34.6558 123.189 34.2853 122.394C33.9148 121.599 47.4609 118.984 47.4609 118.984Z" fill="black"/>
<path d="M31.2552 162.237L31.4156 166.832C31.4156 166.832 30.9436 168.248 31.5997 169.09C32.2558 169.933 32.4233 171.056 33.8582 171.056C35.293 171.056 40.5817 169.94 39.994 171.429C39.4064 172.918 34.4411 174.83 33.6222 174.881C32.8033 174.933 23.347 175.2 23.347 175.2C23.347 175.2 22.3912 173.98 22.816 172.944C23.2408 171.908 23.5594 166.539 23.5594 166.539C23.5594 166.539 30.9366 160.941 31.2552 162.237Z" fill="#444053"/>
<path opacity="0.05" d="M31.2953 162.197L31.4534 166.794C31.4534 166.794 30.9814 168.21 31.6398 169.05C32.2982 169.89 32.4634 171.018 33.8983 171.018C35.3331 171.018 40.6194 169.902 40.0341 171.389C39.4489 172.876 34.4812 174.789 33.6623 174.844C32.8434 174.898 23.38 175.162 23.38 175.162C23.38 175.162 22.436 173.94 22.849 172.904C23.262 171.868 23.583 166.501 23.583 166.501C23.583 166.501 30.9767 160.894 31.2953 162.197Z" fill="black"/>
<path d="M22.5587 165.779C23.1959 166.098 29.2468 163.537 29.2468 163.537C29.2468 163.537 30.0964 160.137 31.4794 158.489C32.8623 156.842 35.3048 150.572 35.3567 150.253C35.4087 149.935 35.4629 149.349 36.473 147.914C37.4831 146.48 38.4931 143.398 38.4931 143.398C38.4931 143.398 40.7775 136.065 42.531 132.294C43.7487 129.674 44.3505 124.742 44.6077 121.983C44.7187 120.766 44.7635 119.966 44.7635 119.966C44.7635 119.966 31.2127 122.562 31.5855 123.366C31.7083 123.631 31.7555 124.256 31.7625 124.978C31.7814 126.427 31.6375 128.254 31.6375 128.254C31.6375 128.254 30.5755 132.133 30.4693 133.25C30.3631 134.366 29.9383 141.274 29.9383 141.274C29.9383 141.274 28.5035 145.736 25.8462 148.445C23.1889 151.155 23.7741 158.914 23.7741 158.914C23.7741 158.914 21.931 165.461 22.5587 165.779Z" fill="#575A89"/>
<path opacity="0.1" d="M36.7987 129.061C36.7987 129.061 34.0352 128.317 33.0794 129.167C32.1236 130.017 36.7987 129.061 36.7987 129.061Z" fill="black"/>
<path opacity="0.1" d="M36.7467 132.568C36.7467 132.568 32.3879 131.624 32.336 132.992C32.2841 134.361 36.7467 132.568 36.7467 132.568Z" fill="black"/>
<path opacity="0.1" d="M34.9933 136.398C34.9933 136.398 33.4947 137.67 32.5508 137.245C31.6068 136.82 34.9933 136.398 34.9933 136.398Z" fill="black"/>
<path opacity="0.1" d="M30.9554 143.301C30.9554 143.301 33.9833 144.417 33.2918 145.588C32.6003 146.758 32.0693 146.916 31.805 146.595C31.5407 146.274 30.9554 143.301 30.9554 143.301Z" fill="black"/>
<path d="M28.5625 163.228L28.7229 167.825C28.7229 167.825 28.2509 169.241 28.9094 170.081C29.5678 170.922 29.733 172.05 31.1678 172.05C32.6027 172.05 37.889 170.933 37.3037 172.42C36.7184 173.907 31.7507 175.821 30.9318 175.875C30.1129 175.929 20.6496 176.194 20.6496 176.194C20.6496 176.194 19.6938 174.971 20.1186 173.935C20.5434 172.899 20.8619 167.533 20.8619 167.533C20.8619 167.533 28.2439 161.925 28.5625 163.228Z" fill="#444053"/>
<path opacity="0.1" d="M27.0214 169.392C27.0214 169.392 26.8893 170.296 24.0455 169.418C21.2018 168.54 27.0214 169.392 27.0214 169.392Z" fill="black"/>
<path opacity="0.1" d="M21.8413 170.055C21.8413 170.055 21.2041 170.933 23.4626 171.332C25.7211 171.731 21.8413 170.055 21.8413 170.055Z" fill="black"/>
<path opacity="0.1" d="M22.4525 169.364C22.4525 169.364 24.6851 171.304 25.3742 171.304L22.4525 169.364Z" fill="black"/>
<path opacity="0.1" d="M34.7856 74.5673C35.7721 76.3561 37.5798 76.0469 39.8643 77.5691C40.643 78.0906 41.6908 77.3472 42.4744 76.9461C42.8873 75.9171 43.3876 74.9826 43.3876 74.9826C43.3876 74.9826 37.2093 74.546 34.7856 74.5673Z" fill="black"/>
<path d="M34.0729 71.3554C34.0729 72.5007 34.4125 73.6203 35.0488 74.5726C35.685 75.5249 36.5894 76.2672 37.6475 76.7056C38.7055 77.144 39.8699 77.2588 40.9932 77.0356C42.1165 76.8123 43.1485 76.261 43.9585 75.4513C44.7685 74.6416 45.3203 73.6099 45.544 72.4866C45.7677 71.3634 45.6534 70.199 45.2154 69.1408C44.7774 68.0825 44.0355 67.1778 43.0834 66.5412C42.1314 65.9046 41.0119 65.5645 39.8666 65.564C39.1049 65.5603 38.35 65.7075 37.6456 65.9972C36.9411 66.2869 36.3011 66.7133 35.7623 67.2518C35.2236 67.7903 34.797 68.4302 34.507 69.1345C34.217 69.8389 34.0695 70.5937 34.0729 71.3554Z" fill="#FFC1C7"/>
<path opacity="0.1" d="M31.5926 123.376C31.7153 123.64 31.7625 124.265 31.7696 124.988C36.8577 121.83 41.561 121.615 44.6148 121.993C44.7257 120.775 44.7706 119.975 44.7706 119.975C44.7706 119.975 31.2197 122.578 31.5926 123.376Z" fill="black"/>
<path d="M28.5554 118.993C28.6654 121.241 29.4245 123.409 30.7407 125.235C39.9445 118.863 48.1712 122.42 48.1712 122.42C48.1712 122.42 48.6598 119.21 48.8509 115.545C48.9659 113.675 48.9517 111.799 48.8084 109.931C48.5087 106.696 46.5594 100.234 46.9323 94.4687C47.0975 91.9317 48.0816 89.5671 48.0462 87.6107C48.0462 86.9334 48.0084 86.3104 47.9588 85.7558C47.9111 85.2457 47.8139 84.7414 47.6686 84.2501C47.1258 82.3999 45.8939 81.8099 44.6644 80.6536C43.8605 79.879 42.9458 79.2284 41.9504 78.7231C39.9539 77.7485 37.9385 77.7485 36.2063 78.9709C35.8822 79.2011 35.579 79.4593 35.3001 79.7426C34.944 80.1065 34.621 80.5014 34.3349 80.9226C34.2853 80.991 34.2405 81.0618 34.1956 81.1303C33.9408 81.5291 33.7048 82.2512 33.4876 83.1457C32.6876 86.5086 32.2227 92.2881 32.2227 92.2881C32.2227 92.2881 31.3189 99.2712 31.5997 103.92C31.6336 104.782 31.753 105.638 31.956 106.476C33.0204 110.408 29.6716 113.49 29.6716 113.49C28.8505 115.204 28.467 117.095 28.5554 118.993Z" fill="#FF6584"/>
<path d="M65.4933 99.5945C65.4933 99.5945 66.0526 99.5143 66.8479 99.3585C68.927 98.9432 72.6321 97.9756 72.3253 96.3921C72.061 95.0115 69.5594 95.2333 67.7399 95.5897C66.6661 95.7973 65.8307 96.0617 65.8307 96.0617L65.4933 99.5945Z" fill="#FFC1C7"/>
<path opacity="0.1" d="M37.9786 88.642C39.0949 89.4916 41.8584 91.8303 43.9823 93.4775C45.1788 94.405 46.8473 95.5 48.0768 96.2835C48.242 93.7442 48.3577 91.3276 48.3246 89.3806C47.4892 88.7057 47.2107 87.8278 45.9505 86.3575C43.718 83.7616 39.7321 82.8507 39.7321 82.8507C37.0819 82.2654 36.8695 87.783 37.9786 88.642Z" fill="black"/>
<path opacity="0.1" d="M65.4933 99.5945C65.4933 99.5945 66.0526 99.5143 66.8479 99.3585L67.7399 95.5826C66.6661 95.7902 65.8307 96.0545 65.8307 96.0545L65.4933 99.5945Z" fill="black"/>
<path d="M39.7392 82.4259C39.7392 82.4259 43.7251 83.3274 45.9576 85.9328C48.1901 88.5381 47.3736 87.3487 51.9613 90.3435C54.5266 92.0167 58.699 92.8804 61.3327 93.2816C63.1324 93.5603 64.8911 94.0588 66.5694 94.766L67.4237 95.1247L66.095 100.763C66.095 100.763 65.2455 100.177 60.3037 100.125C55.362 100.074 49.7288 96.8829 49.7288 96.8829C49.7288 96.8829 46.1157 94.7047 43.9894 93.0574C41.8631 91.4102 39.102 89.0668 37.9786 88.2172C36.8553 87.3676 37.0818 81.8406 39.7392 82.4259Z" fill="#E8F4FF"/>
<path opacity="0.1" d="M33.4948 83.5728C34.2688 84.0448 35.2057 83.8513 36.3267 82.4613C39.3427 78.6995 44.3505 82.4471 47.6733 84.6749C47.1305 82.8271 45.8986 82.2347 44.6691 81.0784C41.1056 77.7296 37.1173 77.3166 34.3396 81.3497C34.2901 81.4182 34.2452 81.489 34.2004 81.5574C33.9408 81.9563 33.7048 82.6784 33.4948 83.5728Z" fill="black"/>
<path d="M33.4948 83.148C34.2688 83.62 35.2057 83.4265 36.3267 82.0365C36.3539 81.9996 36.3831 81.9641 36.414 81.9303C36.8454 81.3983 37.4026 80.9822 38.0353 80.7196C38.571 80.5058 39.1465 80.41 39.7226 80.4388C42.3823 80.5238 45.4195 82.7374 47.6733 84.2501C47.1305 82.3999 45.8986 81.8099 44.6691 80.6536C43.8653 79.879 42.9506 79.2284 41.9552 78.7231C39.9586 77.7485 37.9432 77.7485 36.211 78.9709C35.8869 79.2011 35.5837 79.4593 35.3048 79.7426C34.9487 80.1065 34.6257 80.5014 34.3396 80.9226C34.2901 80.991 34.2452 81.0618 34.2004 81.1303C33.9408 81.5315 33.7048 82.2536 33.4948 83.148Z" fill="#FF6584"/>
<path opacity="0.1" d="M28.5554 118.568C28.6654 120.817 29.4245 122.985 30.7407 124.811C39.9445 118.439 48.1712 121.995 48.1712 121.995C48.1712 121.995 48.6597 118.786 48.8509 115.121C45.3464 115.09 35.3662 115.173 32.0174 117.009C30.91 117.626 29.7518 118.148 28.5554 118.568Z" fill="black"/>
<path d="M28.5554 118.993C28.6654 121.241 29.4245 123.409 30.7407 125.235C39.9445 118.863 48.1712 122.42 48.1712 122.42C48.1712 122.42 48.6597 119.21 48.8509 115.545C45.3464 115.515 35.3662 115.597 32.0174 117.433C30.91 118.051 29.7518 118.573 28.5554 118.993Z" fill="#E8F4FF"/>
<path opacity="0.1" d="M45.5848 65.9181L45.3275 65.7245C45.3743 65.7786 45.4103 65.8411 45.4337 65.9086L45.5848 65.9181Z" fill="black"/>
<path opacity="0.1" d="M31.6068 103.923C31.9225 103.601 32.2063 103.249 32.454 102.872C34.6771 99.5874 35.1326 95.382 34.2712 91.5447C34.08 90.6928 33.8299 89.7913 34.1367 88.97C34.5567 87.8419 35.8783 87.2543 36.4801 86.2065C37.214 84.9251 36.7043 83.3746 36.4093 81.9256C36.4093 81.8666 36.388 81.8123 36.3762 81.7556C36.3243 81.4937 36.2842 81.227 36.2535 80.9627C36.0702 79.3685 36.2377 77.7536 36.7444 76.231C36.7704 76.1531 36.7963 76.0752 36.8246 75.995C36.9929 75.5178 37.2113 75.0598 37.476 74.6286C38.0188 73.7531 38.7787 73.0262 39.784 72.769C40.0688 72.7339 40.3413 72.632 40.5793 72.4716C41.1764 71.9501 40.4967 71.0556 40.3622 70.2863C40.197 69.3848 40.9003 68.5258 41.731 68.0774C42.4389 67.6974 43.2295 67.5275 43.9965 67.2892C42.9864 66.2564 41.6268 65.6383 40.1845 65.5561C38.7423 65.4738 37.3213 65.9334 36.2003 66.8446C35.0793 67.7558 34.3391 69.053 34.125 70.4816C33.9109 71.9103 34.2383 73.3674 35.0429 74.5672H34.7856C33.9903 74.5672 33.6057 74.631 33.9667 74.7702C34.9933 75.1619 35.2435 78.0081 35.3001 79.7403C34.944 80.1042 34.621 80.499 34.3349 80.9202C34.2853 80.9887 34.2405 81.0595 34.1957 81.1279C33.9408 81.5267 33.7048 82.2489 33.4877 83.1433C32.6876 86.5062 32.2227 92.2857 32.2227 92.2857C32.2227 92.2857 31.326 99.2735 31.6068 103.923Z" fill="black"/>
<path d="M44.9027 65.5121C45.3346 66.0242 44.629 66.7157 43.9871 66.947C43.0974 67.2703 42.1369 67.419 41.3062 67.8744C40.4755 68.3299 39.7746 69.1818 39.935 70.0833C40.0743 70.8503 40.7516 71.7353 40.1545 72.2687C39.9162 72.4288 39.6439 72.5314 39.3592 72.5684C37.8583 72.9507 36.9072 74.3784 36.3998 75.7921C35.7377 77.6359 35.5829 79.6238 35.9515 81.548C36.237 83.0418 36.8176 84.6678 36.0553 85.9988C35.4535 87.049 34.1319 87.6343 33.7119 88.7623C33.4051 89.5836 33.6552 90.4851 33.8464 91.337C34.7078 95.1696 34.2523 99.375 32.0292 102.665C31.6005 103.362 31.0136 103.949 30.3159 104.378C29.3578 104.909 28.1919 104.952 27.0875 104.874C25.843 104.784 24.6118 104.56 23.4154 104.206C24.3557 103.373 24.9779 102.239 25.1759 100.999C24.0809 100.659 22.7806 100.876 21.8602 100.21C20.5835 99.29 20.928 97.3006 21.8862 96.0711C22.8443 94.8415 24.2461 93.9471 25.0414 92.6208C27.2149 88.9252 23.6632 83.9598 25.5913 80.1414C26.0916 79.1503 26.9294 78.3314 27.3282 77.3095C27.8002 76.0776 27.5996 74.7136 27.5524 73.4061C27.4604 70.6929 28.0692 68.0018 29.32 65.5924C30.061 64.1622 31.0616 62.8029 32.4705 61.9557C33.8794 61.1085 35.7532 60.8512 37.214 61.6111C37.8606 61.9463 38.394 62.456 39.0666 62.7486C40.3551 63.3127 41.9882 63.0082 43.121 63.8224C44.2537 64.6366 43.7369 65.682 45.16 65.7104" fill="#965D7B"/>
<path opacity="0.1" d="M39.0925 105.719C38.5403 105.995 37.4406 108.484 34.9437 110.283C32.4469 112.081 39.0925 105.719 39.0925 105.719Z" fill="black"/>
<path opacity="0.1" d="M40.1994 100.739C40.1994 100.739 37.0181 107.378 33.2847 108.345C29.5513 109.313 40.1994 100.739 40.1994 100.739Z" fill="black"/>
<path opacity="0.1" d="M46.0803 116.858C46.0803 116.858 45.0184 120.187 45.2308 120.471C45.4431 120.754 46.0803 116.858 46.0803 116.858Z" fill="black"/>
<path opacity="0.1" d="M44.0248 116.999C44.0248 116.999 42.9628 120.329 43.1752 120.612C43.3876 120.895 44.0248 116.999 44.0248 116.999Z" fill="black"/>
<path opacity="0.1" d="M41.6885 116.928C41.6885 116.928 40.6241 120.258 40.8365 120.541C41.0489 120.825 41.6885 116.928 41.6885 116.928Z" fill="black"/>
<path opacity="0.1" d="M30.3395 119.564C30.3395 119.564 31.0215 122.991 31.3448 123.137C31.6681 123.284 30.3395 119.564 30.3395 119.564Z" fill="black"/>
<path opacity="0.1" d="M34.3065 118.075C34.3065 118.075 34.9886 121.504 35.3119 121.648C35.6352 121.792 34.3065 118.075 34.3065 118.075Z" fill="black"/>
<path opacity="0.1" d="M32.041 119.069C32.041 119.069 32.723 122.495 33.0464 122.642C33.3697 122.788 32.041 119.069 32.041 119.069Z" fill="black"/>
<path opacity="0.1" d="M52.1029 92.1677C51.9259 92.2031 52.6339 93.9023 50.6138 94.0085C48.5937 94.1147 52.1029 92.1677 52.1029 92.1677Z" fill="black"/>
<path opacity="0.1" d="M65.6702 96.4534C65.6702 96.4534 64.8915 98.0818 63.6148 98.4004C62.338 98.7189 65.6702 96.4534 65.6702 96.4534Z" fill="black"/>
<path opacity="0.1" d="M59.5414 95.4268C59.5414 95.4268 61.243 97.1968 58.8689 97.5862C56.4948 97.9756 59.5414 95.4268 59.5414 95.4268Z" fill="black"/>
<path opacity="0.1" d="M46.0449 88.6255C46.0449 88.6255 42.5735 87.5611 42.033 88.3399C41.4926 89.1187 46.0449 88.6255 46.0449 88.6255Z" fill="black"/>
<path opacity="0.1" d="M39.9681 92.9748C39.4135 93.251 38.3161 95.7407 35.8169 97.539C33.3177 99.3373 39.9681 92.9748 39.9681 92.9748Z" fill="black"/>
<g opacity="0.1">
<path opacity="0.1" d="M37.8984 62.2082C37.2895 61.9415 36.7869 61.5002 36.2158 61.1651C36.5255 61.2384 36.8251 61.3494 37.1078 61.4955C37.6176 61.7598 38.0636 62.1327 38.5545 62.423C38.3299 62.3707 38.1104 62.2988 37.8984 62.2082Z" fill="black"/>
<path opacity="0.1" d="M45.0585 65.5994L44.9051 65.5877C44.882 65.5212 44.8468 65.4596 44.8013 65.4059L45.0585 65.5994Z" fill="black"/>
<path opacity="0.1" d="M24.0078 100.465C23.996 100.538 23.9771 100.612 23.9629 100.687C23.1771 100.6 22.3865 100.553 21.7658 100.111C22.4927 100.258 23.2927 100.243 24.0078 100.465Z" fill="black"/>
<path opacity="0.1" d="M25.9193 104.336C27.0214 104.416 28.1896 104.373 29.1477 103.84C29.8453 103.412 30.4323 102.826 30.861 102.129C33.0841 98.8417 33.5396 94.6363 32.6782 90.8013C32.4871 89.9494 32.2369 89.0455 32.5413 88.2266C32.9638 87.0986 34.2853 86.511 34.8871 85.4631C35.6494 84.1321 35.0688 82.5061 34.7809 81.0123C34.4134 79.088 34.5682 77.1005 35.2293 75.2564C35.7367 73.8404 36.6878 72.4244 38.191 72.0303C38.4755 71.9937 38.7476 71.8919 38.9864 71.733C39.5811 71.2091 38.9038 70.317 38.7669 69.5477C38.604 68.6462 39.3073 67.7848 40.1356 67.3387C40.964 66.8927 41.9268 66.7346 42.8165 66.4113C43.3853 66.206 43.9965 65.6396 43.8384 65.1581L43.9894 65.1699L43.7346 64.9764C43.7802 65.03 43.8154 65.0916 43.8384 65.1581C42.6112 65.052 43.0478 64.0655 41.9504 63.2702L41.8442 63.2018C42.2667 63.2852 42.668 63.453 43.0242 63.695C44.1192 64.4832 43.6826 65.472 44.9122 65.5829C45.0774 66.0549 44.4591 66.6308 43.8927 66.8361C43.003 67.1594 42.0425 67.3081 41.2118 67.7635C40.3811 68.219 39.6802 69.0709 39.8407 69.9724C39.9799 70.7394 40.6572 71.6244 40.0601 72.1578C39.8218 72.3179 39.5495 72.4205 39.2648 72.4575C37.7639 72.8398 36.8128 74.2675 36.3054 75.6812C35.6428 77.5265 35.4872 79.5158 35.8547 81.4418C36.1426 82.9356 36.7232 84.5616 35.9609 85.8926C35.3591 86.9428 34.0375 87.5281 33.6175 88.6561C33.3107 89.4774 33.5608 90.3789 33.752 91.2308C34.6134 95.0634 34.1579 99.2688 31.9348 102.559C31.5055 103.256 30.9187 103.843 30.2215 104.272C29.2634 104.803 28.0975 104.845 26.9931 104.768C25.7486 104.678 24.5174 104.454 23.321 104.1C23.3659 104.062 23.4036 104.019 23.4461 103.979C24.2606 104.159 25.0872 104.278 25.9193 104.336Z" fill="black"/>
</g>
<path d="M190.367 15.0447C190.367 15.0447 170.499 13.8482 172.84 27.7719C172.84 27.7719 172.368 30.2333 174.605 31.3495C174.605 31.3495 174.641 30.3182 176.644 30.6675C177.357 30.7869 178.081 30.8218 178.801 30.7714C179.777 30.7056 180.704 30.3227 181.442 29.6811C181.442 29.6811 187.028 27.3754 189.199 18.2447C189.199 18.2447 190.806 16.2553 190.743 15.7432L187.389 17.1733C187.389 17.1733 188.536 19.5946 187.625 21.603C187.625 21.603 187.517 17.263 186.872 17.355C186.74 17.3763 185.128 18.1928 185.128 18.1928C185.128 18.1928 187.101 22.4077 185.6 25.4709C185.6 25.4709 186.167 20.279 184.503 18.4973L182.143 19.8755C182.143 19.8755 184.449 24.2296 182.886 27.7789C182.886 27.7789 183.288 22.3322 181.648 20.2129L179.509 21.8814C179.509 21.8814 181.699 26.1883 180.373 29.1241C180.373 29.1241 180.201 22.7829 179.063 22.3039C179.063 22.3039 177.194 23.9558 176.909 24.6331C176.909 24.6331 178.391 27.7459 177.47 29.3908C177.47 29.3908 176.906 25.1641 176.444 25.1429C176.444 25.1429 174.579 27.9418 174.386 29.8628C174.386 29.8628 174.466 27.0096 175.993 24.8762C175.993 24.8762 174.19 25.1854 173.138 26.3559C173.138 26.3559 173.428 24.3759 176.441 24.2036C176.441 24.2036 177.98 22.0797 178.393 21.9522C178.393 21.9522 175.384 21.6997 173.56 22.5092C173.56 22.5092 175.167 20.6425 178.945 21.4897L181.069 19.7669C181.069 19.7669 177.107 19.2241 175.429 19.8236C175.429 19.8236 177.362 18.1716 181.638 19.3752L183.937 17.9993C183.937 17.9993 180.56 17.2724 178.549 17.5273C178.549 17.5273 180.673 16.3827 184.609 17.6241L186.261 16.8854C186.261 16.8854 183.788 16.3993 183.063 16.3237C182.339 16.2482 182.299 16.0476 182.299 16.0476C183.866 15.7849 185.476 15.9639 186.948 16.5645C186.948 16.5645 190.431 15.2665 190.367 15.0447Z" fill="#FF4D4D"/>
<path d="M169.987 8.85451C169.987 8.85451 161.019 8.31172 162.067 14.6033C162.067 14.6033 161.857 15.7149 162.865 16.2199C162.865 16.2199 162.881 15.7479 163.785 15.9131C164.108 15.9673 164.436 15.9831 164.762 15.9603C165.198 15.9269 165.612 15.7539 165.942 15.4671C165.942 15.4671 168.465 14.424 169.447 10.2988C169.447 10.2988 170.173 9.39966 170.155 9.16838L168.639 9.81501C168.639 9.81501 169.156 10.91 168.75 11.8162C168.75 11.8162 168.701 9.85513 168.411 9.90233C168.349 9.90233 167.622 10.2799 167.622 10.2799C167.622 10.2799 168.512 12.1844 167.842 13.5673C167.842 13.5673 168.097 11.2215 167.344 10.4192L166.277 11.0398C166.277 11.0398 167.318 13.008 166.612 14.6128C166.612 14.6128 166.794 12.1514 166.053 11.1932L165.088 11.946C165.088 11.946 166.065 13.8836 165.468 15.2146C165.468 15.2146 165.39 12.3496 164.878 12.1466C164.878 12.1466 164.033 12.89 163.903 13.1968C163.903 13.1968 164.573 14.6128 164.158 15.3467C164.158 15.3467 163.903 13.4375 163.686 13.4304C163.686 13.4304 162.843 14.6954 162.756 15.5544C162.797 14.7525 163.048 13.9753 163.483 13.3007C162.997 13.3922 162.548 13.6244 162.192 13.9685C162.192 13.9685 162.324 13.0741 163.691 12.9962C163.691 12.9962 164.387 12.0381 164.573 11.9791C164.573 11.9791 163.214 11.8658 162.388 12.2316C162.388 12.2316 163.115 11.3867 164.821 11.7596L165.777 10.9808C165.777 10.9808 163.986 10.7448 163.228 11.0068C163.228 11.0068 164.101 10.2587 166.032 10.8038L167.072 10.1808C167.072 10.1808 165.546 9.85277 164.637 9.97077C164.637 9.97077 165.595 9.45394 167.377 10.0156L168.118 9.68049C168.118 9.68049 167.002 9.46102 166.674 9.42798C166.346 9.39494 166.329 9.3029 166.329 9.3029C167.038 9.18505 167.765 9.26676 168.429 9.53889C168.429 9.53889 170.015 8.96071 169.987 8.85451Z" fill="#FF4D4D"/>
<defs>
<linearGradient id="paint0_linear" x1="179.297" y1="176.991" x2="179.297" y2="60.7262" gradientUnits="userSpaceOnUse">
<stop stop-color="#808080" stop-opacity="0.25"/>
<stop offset="0.54" stop-color="#808080" stop-opacity="0.12"/>
<stop offset="1" stop-color="#808080" stop-opacity="0.1"/>
</linearGradient>
<linearGradient id="paint1_linear" x1="13950.7" y1="92166.2" x2="13950.7" y2="35194.8" gradientUnits="userSpaceOnUse">
<stop stop-color="#808080" stop-opacity="0.25"/>
<stop offset="0.54" stop-color="#808080" stop-opacity="0.12"/>
<stop offset="1" stop-color="#808080" stop-opacity="0.1"/>
</linearGradient>
<linearGradient id="paint2_linear" x1="112.857" y1="128.36" x2="112.857" y2="128.197" gradientUnits="userSpaceOnUse">
<stop stop-color="#808080" stop-opacity="0.25"/>
<stop offset="0.54" stop-color="#808080" stop-opacity="0.12"/>
<stop offset="1" stop-color="#808080" stop-opacity="0.1"/>
</linearGradient>
<linearGradient id="paint3_linear" x1="139.283" y1="162.852" x2="139.283" y2="162.462" gradientUnits="userSpaceOnUse">
<stop stop-color="#808080" stop-opacity="0.25"/>
<stop offset="0.54" stop-color="#808080" stop-opacity="0.12"/>
<stop offset="1" stop-color="#808080" stop-opacity="0.1"/>
</linearGradient>
</defs>
</svg>
